<svg width="48" height="48" viewBox="0 0 48 48" fill="none" xmlns="http://www.w3.org/2000/svg">
<path d="M24.959 15.301L34.288 21.206L32.548 22.472L23.925 17.014L15.386 22.47L13.658 21.2L22.885 15.306C23.1941 15.1072 23.5537 15.001 23.9212 15.0001C24.2888 14.9992 24.6489 15.1037 24.959 15.301Z" fill="white"/>
<path fill-rule="evenodd" clip-rule="evenodd" d="M6.83498 20.913C5.67698 20.063 5.73298 18.264 6.94098 17.493L22.885 7.305C23.1941 7.10615 23.5537 7.00001 23.9213 6.99912C24.2888 6.99823 24.6489 7.10265 24.959 7.3L41.052 17.487C42.269 18.257 42.325 20.067 41.157 20.917L25.066 32.627C24.38 33.127 23.465 33.124 22.78 32.622L6.83498 20.912V20.913ZM8.01798 19.177L23.925 9.014L39.982 19.178L39.987 19.181L39.988 19.184C39.9957 19.1999 39.9998 19.2173 40 19.235C40.0008 19.2539 39.9974 19.2726 39.99 19.29C39.9899 19.2919 39.9892 19.2936 39.988 19.295L39.981 19.301L23.926 30.982L8.01898 19.301C8.01641 19.2993 8.01406 19.2973 8.01198 19.295L8.00898 19.289C8.00206 19.2719 7.99899 19.2534 7.99998 19.235C8.00018 19.2173 8.00428 19.1999 8.01198 19.184L8.01298 19.181L8.01798 19.177Z" fill="white"/>
<path d="M8.23698 24.664L9.96498 25.934L8.01798 27.177C8.0162 27.1782 8.01453 27.1795 8.01298 27.181L8.01198 27.184C8.00442 27.1996 8.00032 27.2167 7.99998 27.234C7.99885 27.2543 8.00262 27.2745 8.01098 27.293C8.01128 27.2937 8.01161 27.2943 8.01198 27.295L8.01898 27.301L23.926 38.982L39.981 27.301L39.988 27.295L39.989 27.293L39.991 27.29C39.998 27.2726 40.0011 27.2538 40 27.235C39.9998 27.2173 39.9957 27.1999 39.988 27.184L39.987 27.181L39.982 27.178L38.002 25.924L39.742 24.659L41.052 25.488C42.269 26.258 42.325 28.068 41.157 28.918L25.066 40.627C24.38 41.127 23.465 41.124 22.78 40.622L6.83498 28.912C5.67698 28.062 5.73298 26.264 6.94098 25.492L8.23698 24.664Z" fill="white"/>
</svg>
